<svg version="1.1" xmlns="http://www.w3.org/2000/svg" xmlns:xlink="http://www.w3.org/1999/xlink" width="658" height="494"><defs><clipPath id="gBlrzIMrtgNb"><path fill="none" stroke="none" d=" M 0 0 L 658 0 L 658 494 L 0 494 L 0 0 Z"/></clipPath></defs><g transform="scale(1,1)" clip-path="url(#gBlrzIMrtgNb)"><g transform="translate(-281.4818462396856,-175.04057651288704)"><rect fill="rgb(255,255,255)" stroke="none" x="0" y="0" width="1408" height="924" fill-opacity="1"/><path fill="none" stroke="rgb(0,100,0)" paint-order="fill stroke markers" d=" M 525.4668962653757 383.08663780713374 C 520.8140537623696 393.83987381408116 522.8472737159772 406.3178675385291 530.6731553733624 415.0377645713783 C 538.4990370307477 423.7576616042275 550.6853009942132 427.12356139178064 561.8772794719632 423.65648110247764 L 553 395 Z" stroke-opacity="1" stroke-linecap="round" stroke-linejoin="round" stroke-miterlimit="10" stroke-width="2.5"/><text fill="rgb(0,100,0)" stroke="none" font-family="geogebra-sans-serif, sans-serif" font-size="16px" font-style="normal" font-weight="normal" text-decoration="normal" x="537" y="410" text-anchor="start" dominant-baseline="alphabetic" fill-opacity="1">γ</text><text fill="none" stroke="rgb(255,255,255)" font-family="geogebra-sans-serif, sans-serif" font-size="16px" font-style="normal" font-weight="normal" text-decoration="normal" x="537" y="410" text-anchor="start" dominant-baseline="alphabetic" stroke-opacity="1" stroke-linejoin="bevel" stroke-miterlimit="10" stroke-width="3">γ</text><text fill="rgb(0,100,0)" stroke="none" font-family="geogebra-sans-serif, sans-serif" font-size="16px" font-style="normal" font-weight="normal" text-decoration="normal" x="537" y="410" text-anchor="start" dominant-baseline="alphabetic" fill-opacity="1">γ</text><path fill="none" stroke="rgb(0,0,0)" paint-order="fill stroke markers" d=" M 449 350.0000000000001 L 572 269.0000000000001" stroke-opacity="1" stroke-linecap="round" stroke-linejoin="round" stroke-miterlimit="10" stroke-width="3.5"/><path fill="none" stroke="rgb(0,0,0)" paint-order="fill stroke markers" d=" M 572 269.0000000000001 L 724.0000000000001 340.0000000000001" stroke-opacity="0.6980392156862745" stroke-linecap="round" stroke-linejoin="round" stroke-miterlimit="10" stroke-width="2.5"/><path fill="none" stroke="rgb(0,0,0)" paint-order="fill stroke markers" d=" M 724.0000000000001 340.0000000000001 L 768.0000000000001 442.0000000000001" stroke-opacity="0.6980392156862745" stroke-linecap="round" stroke-linejoin="round" stroke-miterlimit="10" stroke-width="2.5"/><path fill="none" stroke="rgb(0,0,0)" paint-order="fill stroke markers" d=" M 768.0000000000001 442.0000000000001 L 610.0000000000001 579.0000000000001" stroke-opacity="0.6980392156862745" stroke-linecap="round" stroke-linejoin="round" stroke-miterlimit="10" stroke-width="2.5"/><path fill="none" stroke="rgb(0,0,0)" paint-order="fill stroke markers" d=" M 610.0000000000001 579.0000000000001 L 553 395" stroke-opacity="1" stroke-linecap="round" stroke-linejoin="round" stroke-miterlimit="10" stroke-width="3.5"/><path fill="none" stroke="rgb(0,0,0)" paint-order="fill stroke markers" d=" M 553 395 L 449 350.0000000000001" stroke-opacity="1" stroke-linecap="round" stroke-linejoin="round" stroke-miterlimit="10" stroke-width="3.5"/><path fill="none" stroke="rgb(255,0,0)" paint-order="fill stroke markers" d=" M 449 350.0000000000001 L 610.0000000000001 579.0000000000001" stroke-opacity="1" stroke-linecap="round" stroke-linejoin="round" stroke-miterlimit="10" stroke-width="3.5"/><path fill="none" stroke="rgb(0,0,255)" paint-order="fill stroke markers" d=" M 572 269.0000000000001 L 610.0000000000001 579.0000000000001" stroke-opacity="1" stroke-linecap="round" stroke-linejoin="round" stroke-miterlimit="10" stroke-width="3.5"/><path fill="none" stroke="rgb(0,0,0)" paint-order="fill stroke markers" d=" M 553 395 L 572 269.0000000000001" stroke-opacity="1" stroke-linecap="round" stroke-linejoin="round" stroke-miterlimit="10" stroke-width="3.5"/><path fill="rgb(77,77,255)" stroke="none" paint-order="stroke fill markers" d=" M 454 350.0000000000001 C 454 352.76142374915406 451.76142374915395 355.0000000000001 449 355.0000000000001 C 446.23857625084605 355.0000000000001 444 352.76142374915406 444 350.0000000000001 C 444 347.23857625084617 446.23857625084605 345.0000000000001 449 345.0000000000001 C 451.76142374915395 345.0000000000001 454 347.23857625084617 454 350.0000000000001 Z" fill-opacity="1"/><path fill="none" stroke="rgb(0,0,0)" paint-order="fill stroke markers" d=" M 454 350.0000000000001 C 454 352.76142374915406 451.76142374915395 355.0000000000001 449 355.0000000000001 C 446.23857625084605 355.0000000000001 444 352.76142374915406 444 350.0000000000001 C 444 347.23857625084617 446.23857625084605 345.0000000000001 449 345.0000000000001 C 451.76142374915395 345.0000000000001 454 347.23857625084617 454 350.0000000000001 Z" stroke-opacity="1" stroke-linecap="round" stroke-linejoin="round" stroke-miterlimit="10"/><text fill="rgb(77,77,255)" stroke="none" font-family="geogebra-sans-serif, sans-serif" font-size="16px" font-style="normal" font-weight="normal" text-decoration="normal" x="438" y="335" text-anchor="start" dominant-baseline="alphabetic" fill-opacity="1">A</text><text fill="none" stroke="rgb(255,255,255)" font-family="geogebra-sans-serif, sans-serif" font-size="16px" font-style="normal" font-weight="normal" text-decoration="normal" x="438" y="335" text-anchor="start" dominant-baseline="alphabetic" stroke-opacity="1" stroke-linejoin="bevel" stroke-miterlimit="10" stroke-width="3">A</text><text fill="rgb(77,77,255)" stroke="none" font-family="geogebra-sans-serif, sans-serif" font-size="16px" font-style="normal" font-weight="normal" text-decoration="normal" x="438" y="335" text-anchor="start" dominant-baseline="alphabetic" fill-opacity="1">A</text><path fill="rgb(77,77,255)" stroke="none" paint-order="stroke fill markers" d=" M 558 395 C 558 397.76142374915395 555.761423749154 400 553 400 C 550.238576250846 400 548 397.76142374915395 548 395 C 548 392.23857625084605 550.238576250846 390 553 390 C 555.761423749154 390 558 392.23857625084605 558 395 Z" fill-opacity="1"/><path fill="none" stroke="rgb(0,0,0)" paint-order="fill stroke markers" d=" M 558 395 C 558 397.76142374915395 555.761423749154 400 553 400 C 550.238576250846 400 548 397.76142374915395 548 395 C 548 392.23857625084605 550.238576250846 390 553 390 C 555.761423749154 390 558 392.23857625084605 558 395 Z" stroke-opacity="1" stroke-linecap="round" stroke-linejoin="round" stroke-miterlimit="10"/><text fill="rgb(77,77,255)" stroke="none" font-family="geogebra-sans-serif, sans-serif" font-size="16px" font-style="normal" font-weight="normal" text-decoration="normal" x="563" y="395" text-anchor="start" dominant-baseline="alphabetic" fill-opacity="1">B</text><text fill="none" stroke="rgb(255,255,255)" font-family="geogebra-sans-serif, sans-serif" font-size="16px" font-style="normal" font-weight="normal" text-decoration="normal" x="563" y="395" text-anchor="start" dominant-baseline="alphabetic" stroke-opacity="1" stroke-linejoin="bevel" stroke-miterlimit="10" stroke-width="3">B</text><text fill="rgb(77,77,255)" stroke="none" font-family="geogebra-sans-serif, sans-serif" font-size="16px" font-style="normal" font-weight="normal" text-decoration="normal" x="563" y="395" text-anchor="start" dominant-baseline="alphabetic" fill-opacity="1">B</text><path fill="rgb(77,77,255)" stroke="none" paint-order="stroke fill markers" d=" M 773.0000000000001 442.0000000000001 C 773.0000000000001 444.76142374915406 770.7614237491541 447.0000000000001 768.0000000000001 447.0000000000001 C 765.2385762508461 447.0000000000001 763.0000000000001 444.76142374915406 763.0000000000001 442.0000000000001 C 763.0000000000001 439.23857625084617 765.2385762508461 437.0000000000001 768.0000000000001 437.0000000000001 C 770.7614237491541 437.0000000000001 773.0000000000001 439.23857625084617 773.0000000000001 442.0000000000001 Z" fill-opacity="1"/><path fill="none" stroke="rgb(0,0,0)" paint-order="fill stroke markers" d=" M 773.0000000000001 442.0000000000001 C 773.0000000000001 444.76142374915406 770.7614237491541 447.0000000000001 768.0000000000001 447.0000000000001 C 765.2385762508461 447.0000000000001 763.0000000000001 444.76142374915406 763.0000000000001 442.0000000000001 C 763.0000000000001 439.23857625084617 765.2385762508461 437.0000000000001 768.0000000000001 437.0000000000001 C 770.7614237491541 437.0000000000001 773.0000000000001 439.23857625084617 773.0000000000001 442.0000000000001 Z" stroke-opacity="1" stroke-linecap="round" stroke-linejoin="round" stroke-miterlimit="10"/><text fill="rgb(77,77,255)" stroke="none" font-family="geogebra-sans-serif, sans-serif" font-size="16px" font-style="normal" font-weight="normal" text-decoration="normal" x="772" y="432" text-anchor="start" dominant-baseline="alphabetic" fill-opacity="1">C</text><text fill="none" stroke="rgb(255,255,255)" font-family="geogebra-sans-serif, sans-serif" font-size="16px" font-style="normal" font-weight="normal" text-decoration="normal" x="772" y="432" text-anchor="start" dominant-baseline="alphabetic" stroke-opacity="1" stroke-linejoin="bevel" stroke-miterlimit="10" stroke-width="3">C</text><text fill="rgb(77,77,255)" stroke="none" font-family="geogebra-sans-serif, sans-serif" font-size="16px" font-style="normal" font-weight="normal" text-decoration="normal" x="772" y="432" text-anchor="start" dominant-baseline="alphabetic" fill-opacity="1">C</text><path fill="rgb(77,77,255)" stroke="none" paint-order="stroke fill markers" d=" M 729.0000000000001 340.0000000000001 C 729.0000000000001 342.76142374915406 726.7614237491541 345.0000000000001 724.0000000000001 345.0000000000001 C 721.2385762508461 345.0000000000001 719.0000000000001 342.76142374915406 719.0000000000001 340.0000000000001 C 719.0000000000001 337.23857625084617 721.2385762508461 335.0000000000001 724.0000000000001 335.0000000000001 C 726.7614237491541 335.0000000000001 729.0000000000001 337.23857625084617 729.0000000000001 340.0000000000001 Z" fill-opacity="1"/><path fill="none" stroke="rgb(0,0,0)" paint-order="fill stroke markers" d=" M 729.0000000000001 340.0000000000001 C 729.0000000000001 342.76142374915406 726.7614237491541 345.0000000000001 724.0000000000001 345.0000000000001 C 721.2385762508461 345.0000000000001 719.0000000000001 342.76142374915406 719.0000000000001 340.0000000000001 C 719.0000000000001 337.23857625084617 721.2385762508461 335.0000000000001 724.0000000000001 335.0000000000001 C 726.7614237491541 335.0000000000001 729.0000000000001 337.23857625084617 729.0000000000001 340.0000000000001 Z" stroke-opacity="1" stroke-linecap="round" stroke-linejoin="round" stroke-miterlimit="10"/><text fill="rgb(77,77,255)" stroke="none" font-family="geogebra-sans-serif, sans-serif" font-size="16px" font-style="normal" font-weight="normal" text-decoration="normal" x="728" y="330" text-anchor="start" dominant-baseline="alphabetic" fill-opacity="1">D</text><text fill="none" stroke="rgb(255,255,255)" font-family="geogebra-sans-serif, sans-serif" font-size="16px" font-style="normal" font-weight="normal" text-decoration="normal" x="728" y="330" text-anchor="start" dominant-baseline="alphabetic" stroke-opacity="1" stroke-linejoin="bevel" stroke-miterlimit="10" stroke-width="3">D</text><text fill="rgb(77,77,255)" stroke="none" font-family="geogebra-sans-serif, sans-serif" font-size="16px" font-style="normal" font-weight="normal" text-decoration="normal" x="728" y="330" text-anchor="start" dominant-baseline="alphabetic" fill-opacity="1">D</text><path fill="rgb(77,77,255)" stroke="none" paint-order="stroke fill markers" d=" M 577 269.0000000000001 C 577 271.76142374915406 574.761423749154 274.0000000000001 572 274.0000000000001 C 569.238576250846 274.0000000000001 567 271.76142374915406 567 269.0000000000001 C 567 266.23857625084617 569.238576250846 264.0000000000001 572 264.0000000000001 C 574.761423749154 264.0000000000001 577 266.23857625084617 577 269.0000000000001 Z" fill-opacity="1"/><path fill="none" stroke="rgb(0,0,0)" paint-order="fill stroke markers" d=" M 577 269.0000000000001 C 577 271.76142374915406 574.761423749154 274.0000000000001 572 274.0000000000001 C 569.238576250846 274.0000000000001 567 271.76142374915406 567 269.0000000000001 C 567 266.23857625084617 569.238576250846 264.0000000000001 572 264.0000000000001 C 574.761423749154 264.0000000000001 577 266.23857625084617 577 269.0000000000001 Z" stroke-opacity="1" stroke-linecap="round" stroke-linejoin="round" stroke-miterlimit="10"/><text fill="rgb(77,77,255)" stroke="none" font-family="geogebra-sans-serif, sans-serif" font-size="16px" font-style="normal" font-weight="normal" text-decoration="normal" x="576" y="259" text-anchor="start" dominant-baseline="alphabetic" fill-opacity="1">E</text><text fill="none" stroke="rgb(255,255,255)" font-family="geogebra-sans-serif, sans-serif" font-size="16px" font-style="normal" font-weight="normal" text-decoration="normal" x="576" y="259" text-anchor="start" dominant-baseline="alphabetic" stroke-opacity="1" stroke-linejoin="bevel" stroke-miterlimit="10" stroke-width="3">E</text><text fill="rgb(77,77,255)" stroke="none" font-family="geogebra-sans-serif, sans-serif" font-size="16px" font-style="normal" font-weight="normal" text-decoration="normal" x="576" y="259" text-anchor="start" dominant-baseline="alphabetic" fill-opacity="1">E</text><path fill="rgb(77,77,255)" stroke="none" paint-order="stroke fill markers" d=" M 615.0000000000001 579.0000000000001 C 615.0000000000001 581.7614237491541 612.7614237491541 584.0000000000001 610.0000000000001 584.0000000000001 C 607.2385762508461 584.0000000000001 605.0000000000001 581.7614237491541 605.0000000000001 579.0000000000001 C 605.0000000000001 576.2385762508461 607.2385762508461 574.0000000000001 610.0000000000001 574.0000000000001 C 612.7614237491541 574.0000000000001 615.0000000000001 576.2385762508461 615.0000000000001 579.0000000000001 Z" fill-opacity="1"/><path fill="none" stroke="rgb(0,0,0)" paint-order="fill stroke markers" d=" M 615.0000000000001 579.0000000000001 C 615.0000000000001 581.7614237491541 612.7614237491541 584.0000000000001 610.0000000000001 584.0000000000001 C 607.2385762508461 584.0000000000001 605.0000000000001 581.7614237491541 605.0000000000001 579.0000000000001 C 605.0000000000001 576.2385762508461 607.2385762508461 574.0000000000001 610.0000000000001 574.0000000000001 C 612.7614237491541 574.0000000000001 615.0000000000001 576.2385762508461 615.0000000000001 579.0000000000001 Z" stroke-opacity="1" stroke-linecap="round" stroke-linejoin="round" stroke-miterlimit="10"/><text fill="rgb(77,77,255)" stroke="none" font-family="geogebra-sans-serif, sans-serif" font-size="16px" font-style="normal" font-weight="normal" text-decoration="normal" x="609" y="608" text-anchor="start" dominant-baseline="alphabetic" fill-opacity="1">F</text><text fill="none" stroke="rgb(255,255,255)" font-family="geogebra-sans-serif, sans-serif" font-size="16px" font-style="normal" font-weight="normal" text-decoration="normal" x="609" y="608" text-anchor="start" dominant-baseline="alphabetic" stroke-opacity="1" stroke-linejoin="bevel" stroke-miterlimit="10" stroke-width="3">F</text><text fill="rgb(77,77,255)" stroke="none" font-family="geogebra-sans-serif, sans-serif" font-size="16px" font-style="normal" font-weight="normal" text-decoration="normal" x="609" y="608" text-anchor="start" dominant-baseline="alphabetic" fill-opacity="1">F</text></g></g></svg>