<svg version="1.1" xmlns="http://www.w3.org/2000/svg" xmlns:xlink="http://www.w3.org/1999/xlink" width="546" height="319"><defs><clipPath id="umxNwrfsAtnM"><path fill="none" stroke="none" d=" M 0 0 L 546 0 L 546 319 L 0 319 L 0 0 Z"/></clipPath></defs><g transform="scale(1,1)" clip-path="url(#umxNwrfsAtnM)"><g transform="translate(-33.50783454423123,-142.41836586373446)"><rect fill="rgb(255,255,255)" stroke="none" x="0" y="0" width="641" height="924" fill-opacity="1"/><path fill="none" stroke="rgb(0,0,0)" paint-order="fill stroke markers" d=" M 305.5850890007206 212.06553514331395 L 214.89267084855743 369.1494112441428" stroke-opacity="0.6980392156862745" stroke-linecap="round" stroke-linejoin="round" stroke-miterlimit="10" stroke-width="2.5"/><text fill="rgb(0,0,0)" stroke="none" font-family="geogebra-sans-serif, sans-serif" font-size="16px" font-style="normal" font-weight="normal" text-decoration="normal" x="246" y="282" text-anchor="start" dominant-baseline="alphabetic" fill-opacity="1">1</text><text fill="none" stroke="rgb(255,255,255)" font-family="geogebra-sans-serif, sans-serif" font-size="16px" font-style="normal" font-weight="normal" text-decoration="normal" x="246" y="282" text-anchor="start" dominant-baseline="alphabetic" stroke-opacity="1" stroke-linejoin="bevel" stroke-miterlimit="10" stroke-width="3">1</text><text fill="rgb(0,0,0)" stroke="none" font-family="geogebra-sans-serif, sans-serif" font-size="16px" font-style="normal" font-weight="normal" text-decoration="normal" x="246" y="282" text-anchor="start" dominant-baseline="alphabetic" fill-opacity="1">1</text><path fill="none" stroke="rgb(0,0,0)" paint-order="fill stroke markers" d=" M 214.89267084855743 369.1494112441428 L 396.27750715288363 369.1494112441428" stroke-opacity="0.6980392156862745" stroke-linecap="round" stroke-linejoin="round" stroke-miterlimit="10" stroke-width="2.5"/><path fill="none" stroke="rgb(0,0,0)" paint-order="fill stroke markers" d=" M 396.27750715288363 369.1494112441428 L 305.5850890007206 212.06553514331395" stroke-opacity="0.6980392156862745" stroke-linecap="round" stroke-linejoin="round" stroke-miterlimit="10" stroke-width="2.5"/><path fill="none" stroke="rgb(0,0,0)" paint-order="fill stroke markers" d=" M 305.5850890007206 212.06553514331395 L 305.58508900072053 316.7881192105332" stroke-opacity="0.6980392156862745" stroke-linejoin="round" stroke-miterlimit="10" stroke-width="2.5" stroke-dasharray="2.5,3"/><path fill="none" stroke="rgb(0,0,0)" paint-order="fill stroke markers" d=" M 305.58508900072053 316.7881192105332 L 214.89267084855743 369.1494112441428" stroke-opacity="0.6980392156862745" stroke-linejoin="round" stroke-miterlimit="10" stroke-width="2.5" stroke-dasharray="2.5,3"/><path fill="none" stroke="rgb(0,0,0)" paint-order="fill stroke markers" d=" M 305.58508900072053 316.7881192105332 L 396.27750715288363 369.1494112441428" stroke-opacity="0.6980392156862745" stroke-linejoin="round" stroke-miterlimit="10" stroke-width="2.5" stroke-dasharray="2.5,3"/><path fill="rgb(0,0,0)" stroke="none" paint-order="stroke fill markers" d=" M 219.89267084855743 369.1494112441428 C 219.89267084855743 371.91083499329676 217.6540945977114 374.1494112441428 214.89267084855743 374.1494112441428 C 212.13124709940345 374.1494112441428 209.89267084855743 371.91083499329676 209.89267084855743 369.1494112441428 C 209.89267084855743 366.38798749498886 212.13124709940345 364.1494112441428 214.89267084855743 364.1494112441428 C 217.6540945977114 364.1494112441428 219.89267084855743 366.38798749498886 219.89267084855743 369.1494112441428 Z" fill-opacity="1"/><path fill="none" stroke="rgb(0,0,0)" paint-order="fill stroke markers" d=" M 219.89267084855743 369.1494112441428 C 219.89267084855743 371.91083499329676 217.6540945977114 374.1494112441428 214.89267084855743 374.1494112441428 C 212.13124709940345 374.1494112441428 209.89267084855743 371.91083499329676 209.89267084855743 369.1494112441428 C 209.89267084855743 366.38798749498886 212.13124709940345 364.1494112441428 214.89267084855743 364.1494112441428 C 217.6540945977114 364.1494112441428 219.89267084855743 366.38798749498886 219.89267084855743 369.1494112441428 Z" stroke-opacity="1" stroke-linecap="round" stroke-linejoin="round" stroke-miterlimit="10"/><text fill="rgb(0,0,0)" stroke="none" font-family="geogebra-sans-serif, sans-serif" font-size="16px" font-style="normal" font-weight="normal" text-decoration="normal" x="194" y="390" text-anchor="start" dominant-baseline="alphabetic" fill-opacity="1">A</text><text fill="none" stroke="rgb(255,255,255)" font-family="geogebra-sans-serif, sans-serif" font-size="16px" font-style="normal" font-weight="normal" text-decoration="normal" x="194" y="390" text-anchor="start" dominant-baseline="alphabetic" stroke-opacity="1" stroke-linejoin="bevel" stroke-miterlimit="10" stroke-width="3">A</text><text fill="rgb(0,0,0)" stroke="none" font-family="geogebra-sans-serif, sans-serif" font-size="16px" font-style="normal" font-weight="normal" text-decoration="normal" x="194" y="390" text-anchor="start" dominant-baseline="alphabetic" fill-opacity="1">A</text><path fill="rgb(0,0,0)" stroke="none" paint-order="stroke fill markers" d=" M 401.27750715288363 369.1494112441428 C 401.27750715288363 371.91083499329676 399.0389309020376 374.1494112441428 396.27750715288363 374.1494112441428 C 393.5160834037297 374.1494112441428 391.27750715288363 371.91083499329676 391.27750715288363 369.1494112441428 C 391.27750715288363 366.38798749498886 393.5160834037297 364.1494112441428 396.27750715288363 364.1494112441428 C 399.0389309020376 364.1494112441428 401.27750715288363 366.38798749498886 401.27750715288363 369.1494112441428 Z" fill-opacity="1"/><path fill="none" stroke="rgb(0,0,0)" paint-order="fill stroke markers" d=" M 401.27750715288363 369.1494112441428 C 401.27750715288363 371.91083499329676 399.0389309020376 374.1494112441428 396.27750715288363 374.1494112441428 C 393.5160834037297 374.1494112441428 391.27750715288363 371.91083499329676 391.27750715288363 369.1494112441428 C 391.27750715288363 366.38798749498886 393.5160834037297 364.1494112441428 396.27750715288363 364.1494112441428 C 399.0389309020376 364.1494112441428 401.27750715288363 366.38798749498886 401.27750715288363 369.1494112441428 Z" stroke-opacity="1" stroke-linecap="round" stroke-linejoin="round" stroke-miterlimit="10"/><text fill="rgb(0,0,0)" stroke="none" font-family="geogebra-sans-serif, sans-serif" font-size="16px" font-style="normal" font-weight="normal" text-decoration="normal" x="406" y="388" text-anchor="start" dominant-baseline="alphabetic" fill-opacity="1">B</text><text fill="none" stroke="rgb(255,255,255)" font-family="geogebra-sans-serif, sans-serif" font-size="16px" font-style="normal" font-weight="normal" text-decoration="normal" x="406" y="388" text-anchor="start" dominant-baseline="alphabetic" stroke-opacity="1" stroke-linejoin="bevel" stroke-miterlimit="10" stroke-width="3">B</text><text fill="rgb(0,0,0)" stroke="none" font-family="geogebra-sans-serif, sans-serif" font-size="16px" font-style="normal" font-weight="normal" text-decoration="normal" x="406" y="388" text-anchor="start" dominant-baseline="alphabetic" fill-opacity="1">B</text><path fill="rgb(68,68,68)" stroke="none" paint-order="stroke fill markers" d=" M 310.5850890007206 212.06553514331395 C 310.5850890007206 214.82695889246793 308.34651274987453 217.06553514331395 305.5850890007206 217.06553514331395 C 302.82366525156664 217.06553514331395 300.5850890007206 214.82695889246793 300.5850890007206 212.06553514331395 C 300.5850890007206 209.30411139415997 302.82366525156664 207.06553514331395 305.5850890007206 207.06553514331395 C 308.34651274987453 207.06553514331395 310.5850890007206 209.30411139415997 310.5850890007206 212.06553514331395 Z" fill-opacity="1"/><path fill="none" stroke="rgb(0,0,0)" paint-order="fill stroke markers" d=" M 310.5850890007206 212.06553514331395 C 310.5850890007206 214.82695889246793 308.34651274987453 217.06553514331395 305.5850890007206 217.06553514331395 C 302.82366525156664 217.06553514331395 300.5850890007206 214.82695889246793 300.5850890007206 212.06553514331395 C 300.5850890007206 209.30411139415997 302.82366525156664 207.06553514331395 305.5850890007206 207.06553514331395 C 308.34651274987453 207.06553514331395 310.5850890007206 209.30411139415997 310.5850890007206 212.06553514331395 Z" stroke-opacity="1" stroke-linecap="round" stroke-linejoin="round" stroke-miterlimit="10"/><text fill="rgb(68,68,68)" stroke="none" font-family="geogebra-sans-serif, sans-serif" font-size="16px" font-style="normal" font-weight="normal" text-decoration="normal" x="310" y="202" text-anchor="start" dominant-baseline="alphabetic" fill-opacity="1">C</text><text fill="none" stroke="rgb(255,255,255)" font-family="geogebra-sans-serif, sans-serif" font-size="16px" font-style="normal" font-weight="normal" text-decoration="normal" x="310" y="202" text-anchor="start" dominant-baseline="alphabetic" stroke-opacity="1" stroke-linejoin="bevel" stroke-miterlimit="10" stroke-width="3">C</text><text fill="rgb(68,68,68)" stroke="none" font-family="geogebra-sans-serif, sans-serif" font-size="16px" font-style="normal" font-weight="normal" text-decoration="normal" x="310" y="202" text-anchor="start" dominant-baseline="alphabetic" fill-opacity="1">C</text><path fill="rgb(68,68,68)" stroke="none" paint-order="stroke fill markers" d=" M 309.58508900072053 316.7881192105332 C 309.58508900072053 318.99725820985634 307.7942280000437 320.7881192105332 305.58508900072053 320.7881192105332 C 303.37595000139737 320.7881192105332 301.58508900072053 318.99725820985634 301.58508900072053 316.7881192105332 C 301.58508900072053 314.57898021121 303.37595000139737 312.7881192105332 305.58508900072053 312.7881192105332 C 307.7942280000437 312.7881192105332 309.58508900072053 314.57898021121 309.58508900072053 316.7881192105332 Z" fill-opacity="1"/><path fill="none" stroke="rgb(0,0,0)" paint-order="fill stroke markers" d=" M 309.58508900072053 316.7881192105332 C 309.58508900072053 318.99725820985634 307.7942280000437 320.7881192105332 305.58508900072053 320.7881192105332 C 303.37595000139737 320.7881192105332 301.58508900072053 318.99725820985634 301.58508900072053 316.7881192105332 C 301.58508900072053 314.57898021121 303.37595000139737 312.7881192105332 305.58508900072053 312.7881192105332 C 307.7942280000437 312.7881192105332 309.58508900072053 314.57898021121 309.58508900072053 316.7881192105332 Z" stroke-opacity="1" stroke-linecap="round" stroke-linejoin="round" stroke-miterlimit="10"/><text fill="rgb(68,68,68)" stroke="none" font-family="geogebra-sans-serif, sans-serif" font-size="16px" font-style="normal" font-weight="normal" text-decoration="normal" x="310" y="309" text-anchor="start" dominant-baseline="alphabetic" fill-opacity="1">O</text><text fill="none" stroke="rgb(255,255,255)" font-family="geogebra-sans-serif, sans-serif" font-size="16px" font-style="normal" font-weight="normal" text-decoration="normal" x="310" y="309" text-anchor="start" dominant-baseline="alphabetic" stroke-opacity="1" stroke-linejoin="bevel" stroke-miterlimit="10" stroke-width="3">O</text><text fill="rgb(68,68,68)" stroke="none" font-family="geogebra-sans-serif, sans-serif" font-size="16px" font-style="normal" font-weight="normal" text-decoration="normal" x="310" y="309" text-anchor="start" dominant-baseline="alphabetic" fill-opacity="1">O</text></g></g></svg>