<svg version="1.1" xmlns="http://www.w3.org/2000/svg" xmlns:xlink="http://www.w3.org/1999/xlink" width="530" height="408"><defs><clipPath id="vGyzkethqNMh"><path fill="none" stroke="none" d=" M 0 0 L 530 0 L 530 408 L 0 408 L 0 0 Z"/></clipPath></defs><g transform="scale(1,1)" clip-path="url(#vGyzkethqNMh)"><g transform="translate(-421.15634789671753,-216.3278080768805)"><rect fill="rgb(255,255,255)" stroke="none" x="0" y="0" width="1698" height="924" fill-opacity="1"/><path fill="none" stroke="rgb(32,32,32)" paint-order="fill stroke markers" d=" M 608.0000000000002 307.99999999999994 L 474.0000000000002 502" stroke-opacity="1" stroke-linecap="round" stroke-linejoin="round" stroke-miterlimit="10" stroke-width="2.5"/><path fill="none" stroke="rgb(32,32,32)" paint-order="fill stroke markers" d=" M 474.0000000000002 502 L 898.0000000000005 507" stroke-opacity="1" stroke-linecap="round" stroke-linejoin="round" stroke-miterlimit="10" stroke-width="2.5"/><path fill="none" stroke="rgb(32,32,32)" paint-order="fill stroke markers" d=" M 898.0000000000005 507 L 608.0000000000002 307.99999999999994" stroke-opacity="1" stroke-linecap="round" stroke-linejoin="round" stroke-miterlimit="10" stroke-width="2.5"/><path fill="none" stroke="rgb(0,0,0)" paint-order="fill stroke markers" d=" M 541.0000000000002 404.99999999999994 L 753.0000000000003 407.49999999999994" stroke-opacity="1" stroke-linejoin="round" stroke-miterlimit="10" stroke-width="2.5" stroke-dasharray="2.5,3"/><path fill="none" stroke="rgb(0,0,0)" paint-order="fill stroke markers" d=" M 753.0000000000003 407.49999999999994 L 686.0000000000003 504.49999999999994" stroke-opacity="1" stroke-linejoin="round" stroke-miterlimit="10" stroke-width="2.5" stroke-dasharray="2.5,3"/><path fill="rgb(77,77,255)" stroke="none" paint-order="stroke fill markers" d=" M 613.0000000000002 307.99999999999994 C 613.0000000000002 310.7614237491539 610.7614237491542 312.99999999999994 608.0000000000002 312.99999999999994 C 605.2385762508462 312.99999999999994 603.0000000000002 310.7614237491539 603.0000000000002 307.99999999999994 C 603.0000000000002 305.238576250846 605.2385762508462 302.99999999999994 608.0000000000002 302.99999999999994 C 610.7614237491542 302.99999999999994 613.0000000000002 305.238576250846 613.0000000000002 307.99999999999994 Z" fill-opacity="1"/><path fill="none" stroke="rgb(0,0,0)" paint-order="fill stroke markers" d=" M 613.0000000000002 307.99999999999994 C 613.0000000000002 310.7614237491539 610.7614237491542 312.99999999999994 608.0000000000002 312.99999999999994 C 605.2385762508462 312.99999999999994 603.0000000000002 310.7614237491539 603.0000000000002 307.99999999999994 C 603.0000000000002 305.238576250846 605.2385762508462 302.99999999999994 608.0000000000002 302.99999999999994 C 610.7614237491542 302.99999999999994 613.0000000000002 305.238576250846 613.0000000000002 307.99999999999994 Z" stroke-opacity="1" stroke-linecap="round" stroke-linejoin="round" stroke-miterlimit="10"/><text fill="rgb(77,77,255)" stroke="none" font-family="geogebra-sans-serif, sans-serif" font-size="16px" font-style="normal" font-weight="normal" text-decoration="normal" x="612" y="298" text-anchor="start" dominant-baseline="alphabetic" fill-opacity="1">A</text><text fill="none" stroke="rgb(255,255,255)" font-family="geogebra-sans-serif, sans-serif" font-size="16px" font-style="normal" font-weight="normal" text-decoration="normal" x="612" y="298" text-anchor="start" dominant-baseline="alphabetic" stroke-opacity="1" stroke-linejoin="bevel" stroke-miterlimit="10" stroke-width="3">A</text><text fill="rgb(77,77,255)" stroke="none" font-family="geogebra-sans-serif, sans-serif" font-size="16px" font-style="normal" font-weight="normal" text-decoration="normal" x="612" y="298" text-anchor="start" dominant-baseline="alphabetic" fill-opacity="1">A</text><path fill="rgb(77,77,255)" stroke="none" paint-order="stroke fill markers" d=" M 479.0000000000002 502 C 479.0000000000002 504.76142374915395 476.7614237491542 507 474.0000000000002 507 C 471.2385762508463 507 469.0000000000002 504.76142374915395 469.0000000000002 502 C 469.0000000000002 499.23857625084605 471.2385762508463 497 474.0000000000002 497 C 476.7614237491542 497 479.0000000000002 499.23857625084605 479.0000000000002 502 Z" fill-opacity="1"/><path fill="none" stroke="rgb(0,0,0)" paint-order="fill stroke markers" d=" M 479.0000000000002 502 C 479.0000000000002 504.76142374915395 476.7614237491542 507 474.0000000000002 507 C 471.2385762508463 507 469.0000000000002 504.76142374915395 469.0000000000002 502 C 469.0000000000002 499.23857625084605 471.2385762508463 497 474.0000000000002 497 C 476.7614237491542 497 479.0000000000002 499.23857625084605 479.0000000000002 502 Z" stroke-opacity="1" stroke-linecap="round" stroke-linejoin="round" stroke-miterlimit="10"/><text fill="rgb(77,77,255)" stroke="none" font-family="geogebra-sans-serif, sans-serif" font-size="16px" font-style="normal" font-weight="normal" text-decoration="normal" x="460" y="493" text-anchor="start" dominant-baseline="alphabetic" fill-opacity="1">B</text><text fill="none" stroke="rgb(255,255,255)" font-family="geogebra-sans-serif, sans-serif" font-size="16px" font-style="normal" font-weight="normal" text-decoration="normal" x="460" y="493" text-anchor="start" dominant-baseline="alphabetic" stroke-opacity="1" stroke-linejoin="bevel" stroke-miterlimit="10" stroke-width="3">B</text><text fill="rgb(77,77,255)" stroke="none" font-family="geogebra-sans-serif, sans-serif" font-size="16px" font-style="normal" font-weight="normal" text-decoration="normal" x="460" y="493" text-anchor="start" dominant-baseline="alphabetic" fill-opacity="1">B</text><path fill="rgb(77,77,255)" stroke="none" paint-order="stroke fill markers" d=" M 903.0000000000005 507 C 903.0000000000005 509.76142374915395 900.7614237491545 512 898.0000000000005 512 C 895.2385762508464 512 893.0000000000005 509.76142374915395 893.0000000000005 507 C 893.0000000000005 504.23857625084605 895.2385762508464 502 898.0000000000005 502 C 900.7614237491545 502 903.0000000000005 504.23857625084605 903.0000000000005 507 Z" fill-opacity="1"/><path fill="none" stroke="rgb(0,0,0)" paint-order="fill stroke markers" d=" M 903.0000000000005 507 C 903.0000000000005 509.76142374915395 900.7614237491545 512 898.0000000000005 512 C 895.2385762508464 512 893.0000000000005 509.76142374915395 893.0000000000005 507 C 893.0000000000005 504.23857625084605 895.2385762508464 502 898.0000000000005 502 C 900.7614237491545 502 903.0000000000005 504.23857625084605 903.0000000000005 507 Z" stroke-opacity="1" stroke-linecap="round" stroke-linejoin="round" stroke-miterlimit="10"/><text fill="rgb(77,77,255)" stroke="none" font-family="geogebra-sans-serif, sans-serif" font-size="16px" font-style="normal" font-weight="normal" text-decoration="normal" x="902" y="497" text-anchor="start" dominant-baseline="alphabetic" fill-opacity="1">C</text><text fill="none" stroke="rgb(255,255,255)" font-family="geogebra-sans-serif, sans-serif" font-size="16px" font-style="normal" font-weight="normal" text-decoration="normal" x="902" y="497" text-anchor="start" dominant-baseline="alphabetic" stroke-opacity="1" stroke-linejoin="bevel" stroke-miterlimit="10" stroke-width="3">C</text><text fill="rgb(77,77,255)" stroke="none" font-family="geogebra-sans-serif, sans-serif" font-size="16px" font-style="normal" font-weight="normal" text-decoration="normal" x="902" y="497" text-anchor="start" dominant-baseline="alphabetic" fill-opacity="1">C</text><path fill="rgb(68,68,68)" stroke="none" paint-order="stroke fill markers" d=" M 690.0000000000003 504.49999999999994 C 690.0000000000003 506.7091389993231 688.2091389993235 508.49999999999994 686.0000000000003 508.49999999999994 C 683.7908610006772 508.49999999999994 682.0000000000003 506.7091389993231 682.0000000000003 504.49999999999994 C 682.0000000000003 502.2908610006768 683.7908610006772 500.49999999999994 686.0000000000003 500.49999999999994 C 688.2091389993235 500.49999999999994 690.0000000000003 502.2908610006768 690.0000000000003 504.49999999999994 Z" fill-opacity="1"/><path fill="none" stroke="rgb(0,0,0)" paint-order="fill stroke markers" d=" M 690.0000000000003 504.49999999999994 C 690.0000000000003 506.7091389993231 688.2091389993235 508.49999999999994 686.0000000000003 508.49999999999994 C 683.7908610006772 508.49999999999994 682.0000000000003 506.7091389993231 682.0000000000003 504.49999999999994 C 682.0000000000003 502.2908610006768 683.7908610006772 500.49999999999994 686.0000000000003 500.49999999999994 C 688.2091389993235 500.49999999999994 690.0000000000003 502.2908610006768 690.0000000000003 504.49999999999994 Z" stroke-opacity="1" stroke-linecap="round" stroke-linejoin="round" stroke-miterlimit="10"/><text fill="rgb(68,68,68)" stroke="none" font-family="geogebra-sans-serif, sans-serif" font-size="16px" font-style="normal" font-weight="normal" text-decoration="normal" x="681" y="532" text-anchor="start" dominant-baseline="alphabetic" fill-opacity="1">D</text><text fill="none" stroke="rgb(255,255,255)" font-family="geogebra-sans-serif, sans-serif" font-size="16px" font-style="normal" font-weight="normal" text-decoration="normal" x="681" y="532" text-anchor="start" dominant-baseline="alphabetic" stroke-opacity="1" stroke-linejoin="bevel" stroke-miterlimit="10" stroke-width="3">D</text><text fill="rgb(68,68,68)" stroke="none" font-family="geogebra-sans-serif, sans-serif" font-size="16px" font-style="normal" font-weight="normal" text-decoration="normal" x="681" y="532" text-anchor="start" dominant-baseline="alphabetic" fill-opacity="1">D</text><path fill="rgb(68,68,68)" stroke="none" paint-order="stroke fill markers" d=" M 545.0000000000002 404.99999999999994 C 545.0000000000002 407.2091389993231 543.2091389993234 408.99999999999994 541.0000000000002 408.99999999999994 C 538.7908610006771 408.99999999999994 537.0000000000002 407.2091389993231 537.0000000000002 404.99999999999994 C 537.0000000000002 402.7908610006768 538.7908610006771 400.99999999999994 541.0000000000002 400.99999999999994 C 543.2091389993234 400.99999999999994 545.0000000000002 402.7908610006768 545.0000000000002 404.99999999999994 Z" fill-opacity="1"/><path fill="none" stroke="rgb(0,0,0)" paint-order="fill stroke markers" d=" M 545.0000000000002 404.99999999999994 C 545.0000000000002 407.2091389993231 543.2091389993234 408.99999999999994 541.0000000000002 408.99999999999994 C 538.7908610006771 408.99999999999994 537.0000000000002 407.2091389993231 537.0000000000002 404.99999999999994 C 537.0000000000002 402.7908610006768 538.7908610006771 400.99999999999994 541.0000000000002 400.99999999999994 C 543.2091389993234 400.99999999999994 545.0000000000002 402.7908610006768 545.0000000000002 404.99999999999994 Z" stroke-opacity="1" stroke-linecap="round" stroke-linejoin="round" stroke-miterlimit="10"/><text fill="rgb(68,68,68)" stroke="none" font-family="geogebra-sans-serif, sans-serif" font-size="16px" font-style="normal" font-weight="normal" text-decoration="normal" x="526" y="395" text-anchor="start" dominant-baseline="alphabetic" fill-opacity="1">N</text><text fill="none" stroke="rgb(255,255,255)" font-family="geogebra-sans-serif, sans-serif" font-size="16px" font-style="normal" font-weight="normal" text-decoration="normal" x="526" y="395" text-anchor="start" dominant-baseline="alphabetic" stroke-opacity="1" stroke-linejoin="bevel" stroke-miterlimit="10" stroke-width="3">N</text><text fill="rgb(68,68,68)" stroke="none" font-family="geogebra-sans-serif, sans-serif" font-size="16px" font-style="normal" font-weight="normal" text-decoration="normal" x="526" y="395" text-anchor="start" dominant-baseline="alphabetic" fill-opacity="1">N</text><path fill="rgb(68,68,68)" stroke="none" paint-order="stroke fill markers" d=" M 757.0000000000003 407.49999999999994 C 757.0000000000003 409.7091389993231 755.2091389993235 411.49999999999994 753.0000000000003 411.49999999999994 C 750.7908610006772 411.49999999999994 749.0000000000003 409.7091389993231 749.0000000000003 407.49999999999994 C 749.0000000000003 405.2908610006768 750.7908610006772 403.49999999999994 753.0000000000003 403.49999999999994 C 755.2091389993235 403.49999999999994 757.0000000000003 405.2908610006768 757.0000000000003 407.49999999999994 Z" fill-opacity="1"/><path fill="none" stroke="rgb(0,0,0)" paint-order="fill stroke markers" d=" M 757.0000000000003 407.49999999999994 C 757.0000000000003 409.7091389993231 755.2091389993235 411.49999999999994 753.0000000000003 411.49999999999994 C 750.7908610006772 411.49999999999994 749.0000000000003 409.7091389993231 749.0000000000003 407.49999999999994 C 749.0000000000003 405.2908610006768 750.7908610006772 403.49999999999994 753.0000000000003 403.49999999999994 C 755.2091389993235 403.49999999999994 757.0000000000003 405.2908610006768 757.0000000000003 407.49999999999994 Z" stroke-opacity="1" stroke-linecap="round" stroke-linejoin="round" stroke-miterlimit="10"/><text fill="rgb(68,68,68)" stroke="none" font-family="geogebra-sans-serif, sans-serif" font-size="16px" font-style="normal" font-weight="normal" text-decoration="normal" x="757" y="399" text-anchor="start" dominant-baseline="alphabetic" fill-opacity="1">O</text><text fill="none" stroke="rgb(255,255,255)" font-family="geogebra-sans-serif, sans-serif" font-size="16px" font-style="normal" font-weight="normal" text-decoration="normal" x="757" y="399" text-anchor="start" dominant-baseline="alphabetic" stroke-opacity="1" stroke-linejoin="bevel" stroke-miterlimit="10" stroke-width="3">O</text><text fill="rgb(68,68,68)" stroke="none" font-family="geogebra-sans-serif, sans-serif" font-size="16px" font-style="normal" font-weight="normal" text-decoration="normal" x="757" y="399" text-anchor="start" dominant-baseline="alphabetic" fill-opacity="1">O</text></g></g></svg>