<svg version="1.1" xmlns="http://www.w3.org/2000/svg" xmlns:xlink="http://www.w3.org/1999/xlink" width="658" height="494"><defs><clipPath id="xKZiCEiGZeAB"><path fill="none" stroke="none" d=" M 0 0 L 658 0 L 658 494 L 0 494 L 0 0 Z"/></clipPath></defs><g transform="scale(1,1)" clip-path="url(#xKZiCEiGZeAB)"><g transform="translate(-281.4818462396856,-175.04057651288704)"><rect fill="rgb(255,255,255)" stroke="none" x="0" y="0" width="1408" height="924" fill-opacity="1"/><path fill="rgb(0,100,0)" stroke="none" paint-order="stroke fill markers" d=" M 546.9448740554037 285.49971708546593 C 552.9218387007685 294.57584858398286 563.3398636428035 299.7099708177178 574.1785659467887 298.9207929442971 C 585.017268250774 298.13161507087636 594.5817147752675 291.5425470423993 599.1809239953581 281.6963526557265 L 572 269.0000000000001 Z" fill-opacity="0.09803921568627451"/><path fill="none" stroke="rgb(0,100,0)" paint-order="fill stroke markers" d=" M 546.9448740554037 285.49971708546593 C 552.9218387007685 294.57584858398286 563.3398636428035 299.7099708177178 574.1785659467887 298.9207929442971 C 585.017268250774 298.13161507087636 594.5817147752675 291.5425470423993 599.1809239953581 281.6963526557265 L 572 269.0000000000001 Z" stroke-opacity="0.6980392156862745" stroke-linecap="round" stroke-linejoin="round" stroke-miterlimit="10" stroke-width="2.5"/><text fill="rgb(0,100,0)" stroke="none" font-family="geogebra-sans-serif, sans-serif" font-size="16px" font-style="normal" font-weight="normal" text-decoration="normal" x="570" y="291" text-anchor="start" dominant-baseline="alphabetic" fill-opacity="1">α</text><text fill="none" stroke="rgb(255,255,255)" font-family="geogebra-sans-serif, sans-serif" font-size="16px" font-style="normal" font-weight="normal" text-decoration="normal" x="570" y="291" text-anchor="start" dominant-baseline="alphabetic" stroke-opacity="1" stroke-linejoin="bevel" stroke-miterlimit="10" stroke-width="3">α</text><text fill="rgb(0,100,0)" stroke="none" font-family="geogebra-sans-serif, sans-serif" font-size="16px" font-style="normal" font-weight="normal" text-decoration="normal" x="570" y="291" text-anchor="start" dominant-baseline="alphabetic" fill-opacity="1">α</text><path fill="none" stroke="rgb(0,0,0)" paint-order="fill stroke markers" d=" M 449 350.0000000000001 L 572 269.0000000000001" stroke-opacity="0.6980392156862745" stroke-linecap="round" stroke-linejoin="round" stroke-miterlimit="10" stroke-width="2.5"/><path fill="none" stroke="rgb(0,0,0)" paint-order="fill stroke markers" d=" M 572 269.0000000000001 L 724.0000000000001 340.0000000000001" stroke-opacity="0.6980392156862745" stroke-linecap="round" stroke-linejoin="round" stroke-miterlimit="10" stroke-width="2.5"/><path fill="none" stroke="rgb(0,0,0)" paint-order="fill stroke markers" d=" M 724.0000000000001 340.0000000000001 L 768.0000000000001 442.0000000000001" stroke-opacity="0.6980392156862745" stroke-linecap="round" stroke-linejoin="round" stroke-miterlimit="10" stroke-width="2.5"/><path fill="none" stroke="rgb(0,0,0)" paint-order="fill stroke markers" d=" M 768.0000000000001 442.0000000000001 L 610.0000000000001 579.0000000000001" stroke-opacity="0.6980392156862745" stroke-linecap="round" stroke-linejoin="round" stroke-miterlimit="10" stroke-width="2.5"/><path fill="none" stroke="rgb(0,0,0)" paint-order="fill stroke markers" d=" M 610.0000000000001 579.0000000000001 L 482 488.0000000000001" stroke-opacity="0.6980392156862745" stroke-linecap="round" stroke-linejoin="round" stroke-miterlimit="10" stroke-width="2.5"/><path fill="none" stroke="rgb(0,0,0)" paint-order="fill stroke markers" d=" M 482 488.0000000000001 L 449 350.0000000000001" stroke-opacity="0.6980392156862745" stroke-linecap="round" stroke-linejoin="round" stroke-miterlimit="10" stroke-width="2.5"/><path fill="none" stroke="rgb(0,0,255)" paint-order="fill stroke markers" d=" M 449 350.0000000000001 L 724.0000000000001 340.0000000000001" stroke-opacity="0.6980392156862745" stroke-linecap="round" stroke-linejoin="round" stroke-miterlimit="10" stroke-width="2.5"/><path fill="rgb(77,77,255)" stroke="none" paint-order="stroke fill markers" d=" M 454 350.0000000000001 C 454 352.76142374915406 451.76142374915395 355.0000000000001 449 355.0000000000001 C 446.23857625084605 355.0000000000001 444 352.76142374915406 444 350.0000000000001 C 444 347.23857625084617 446.23857625084605 345.0000000000001 449 345.0000000000001 C 451.76142374915395 345.0000000000001 454 347.23857625084617 454 350.0000000000001 Z" fill-opacity="1"/><path fill="none" stroke="rgb(0,0,0)" paint-order="fill stroke markers" d=" M 454 350.0000000000001 C 454 352.76142374915406 451.76142374915395 355.0000000000001 449 355.0000000000001 C 446.23857625084605 355.0000000000001 444 352.76142374915406 444 350.0000000000001 C 444 347.23857625084617 446.23857625084605 345.0000000000001 449 345.0000000000001 C 451.76142374915395 345.0000000000001 454 347.23857625084617 454 350.0000000000001 Z" stroke-opacity="1" stroke-linecap="round" stroke-linejoin="round" stroke-miterlimit="10"/><text fill="rgb(77,77,255)" stroke="none" font-family="geogebra-sans-serif, sans-serif" font-size="16px" font-style="normal" font-weight="normal" text-decoration="normal" x="453" y="340" text-anchor="start" dominant-baseline="alphabetic" fill-opacity="1">A</text><text fill="none" stroke="rgb(255,255,255)" font-family="geogebra-sans-serif, sans-serif" font-size="16px" font-style="normal" font-weight="normal" text-decoration="normal" x="453" y="340" text-anchor="start" dominant-baseline="alphabetic" stroke-opacity="1" stroke-linejoin="bevel" stroke-miterlimit="10" stroke-width="3">A</text><text fill="rgb(77,77,255)" stroke="none" font-family="geogebra-sans-serif, sans-serif" font-size="16px" font-style="normal" font-weight="normal" text-decoration="normal" x="453" y="340" text-anchor="start" dominant-baseline="alphabetic" fill-opacity="1">A</text><path fill="rgb(77,77,255)" stroke="none" paint-order="stroke fill markers" d=" M 487 488.0000000000001 C 487 490.76142374915406 484.76142374915395 493.0000000000001 482 493.0000000000001 C 479.23857625084605 493.0000000000001 477 490.76142374915406 477 488.0000000000001 C 477 485.23857625084617 479.23857625084605 483.0000000000001 482 483.0000000000001 C 484.76142374915395 483.0000000000001 487 485.23857625084617 487 488.0000000000001 Z" fill-opacity="1"/><path fill="none" stroke="rgb(0,0,0)" paint-order="fill stroke markers" d=" M 487 488.0000000000001 C 487 490.76142374915406 484.76142374915395 493.0000000000001 482 493.0000000000001 C 479.23857625084605 493.0000000000001 477 490.76142374915406 477 488.0000000000001 C 477 485.23857625084617 479.23857625084605 483.0000000000001 482 483.0000000000001 C 484.76142374915395 483.0000000000001 487 485.23857625084617 487 488.0000000000001 Z" stroke-opacity="1" stroke-linecap="round" stroke-linejoin="round" stroke-miterlimit="10"/><text fill="rgb(77,77,255)" stroke="none" font-family="geogebra-sans-serif, sans-serif" font-size="16px" font-style="normal" font-weight="normal" text-decoration="normal" x="486" y="478" text-anchor="start" dominant-baseline="alphabetic" fill-opacity="1">B</text><text fill="none" stroke="rgb(255,255,255)" font-family="geogebra-sans-serif, sans-serif" font-size="16px" font-style="normal" font-weight="normal" text-decoration="normal" x="486" y="478" text-anchor="start" dominant-baseline="alphabetic" stroke-opacity="1" stroke-linejoin="bevel" stroke-miterlimit="10" stroke-width="3">B</text><text fill="rgb(77,77,255)" stroke="none" font-family="geogebra-sans-serif, sans-serif" font-size="16px" font-style="normal" font-weight="normal" text-decoration="normal" x="486" y="478" text-anchor="start" dominant-baseline="alphabetic" fill-opacity="1">B</text><path fill="rgb(77,77,255)" stroke="none" paint-order="stroke fill markers" d=" M 773.0000000000001 442.0000000000001 C 773.0000000000001 444.76142374915406 770.7614237491541 447.0000000000001 768.0000000000001 447.0000000000001 C 765.2385762508461 447.0000000000001 763.0000000000001 444.76142374915406 763.0000000000001 442.0000000000001 C 763.0000000000001 439.23857625084617 765.2385762508461 437.0000000000001 768.0000000000001 437.0000000000001 C 770.7614237491541 437.0000000000001 773.0000000000001 439.23857625084617 773.0000000000001 442.0000000000001 Z" fill-opacity="1"/><path fill="none" stroke="rgb(0,0,0)" paint-order="fill stroke markers" d=" M 773.0000000000001 442.0000000000001 C 773.0000000000001 444.76142374915406 770.7614237491541 447.0000000000001 768.0000000000001 447.0000000000001 C 765.2385762508461 447.0000000000001 763.0000000000001 444.76142374915406 763.0000000000001 442.0000000000001 C 763.0000000000001 439.23857625084617 765.2385762508461 437.0000000000001 768.0000000000001 437.0000000000001 C 770.7614237491541 437.0000000000001 773.0000000000001 439.23857625084617 773.0000000000001 442.0000000000001 Z" stroke-opacity="1" stroke-linecap="round" stroke-linejoin="round" stroke-miterlimit="10"/><text fill="rgb(77,77,255)" stroke="none" font-family="geogebra-sans-serif, sans-serif" font-size="16px" font-style="normal" font-weight="normal" text-decoration="normal" x="772" y="432" text-anchor="start" dominant-baseline="alphabetic" fill-opacity="1">C</text><text fill="none" stroke="rgb(255,255,255)" font-family="geogebra-sans-serif, sans-serif" font-size="16px" font-style="normal" font-weight="normal" text-decoration="normal" x="772" y="432" text-anchor="start" dominant-baseline="alphabetic" stroke-opacity="1" stroke-linejoin="bevel" stroke-miterlimit="10" stroke-width="3">C</text><text fill="rgb(77,77,255)" stroke="none" font-family="geogebra-sans-serif, sans-serif" font-size="16px" font-style="normal" font-weight="normal" text-decoration="normal" x="772" y="432" text-anchor="start" dominant-baseline="alphabetic" fill-opacity="1">C</text><path fill="rgb(77,77,255)" stroke="none" paint-order="stroke fill markers" d=" M 729.0000000000001 340.0000000000001 C 729.0000000000001 342.76142374915406 726.7614237491541 345.0000000000001 724.0000000000001 345.0000000000001 C 721.2385762508461 345.0000000000001 719.0000000000001 342.76142374915406 719.0000000000001 340.0000000000001 C 719.0000000000001 337.23857625084617 721.2385762508461 335.0000000000001 724.0000000000001 335.0000000000001 C 726.7614237491541 335.0000000000001 729.0000000000001 337.23857625084617 729.0000000000001 340.0000000000001 Z" fill-opacity="1"/><path fill="none" stroke="rgb(0,0,0)" paint-order="fill stroke markers" d=" M 729.0000000000001 340.0000000000001 C 729.0000000000001 342.76142374915406 726.7614237491541 345.0000000000001 724.0000000000001 345.0000000000001 C 721.2385762508461 345.0000000000001 719.0000000000001 342.76142374915406 719.0000000000001 340.0000000000001 C 719.0000000000001 337.23857625084617 721.2385762508461 335.0000000000001 724.0000000000001 335.0000000000001 C 726.7614237491541 335.0000000000001 729.0000000000001 337.23857625084617 729.0000000000001 340.0000000000001 Z" stroke-opacity="1" stroke-linecap="round" stroke-linejoin="round" stroke-miterlimit="10"/><text fill="rgb(77,77,255)" stroke="none" font-family="geogebra-sans-serif, sans-serif" font-size="16px" font-style="normal" font-weight="normal" text-decoration="normal" x="728" y="330" text-anchor="start" dominant-baseline="alphabetic" fill-opacity="1">D</text><text fill="none" stroke="rgb(255,255,255)" font-family="geogebra-sans-serif, sans-serif" font-size="16px" font-style="normal" font-weight="normal" text-decoration="normal" x="728" y="330" text-anchor="start" dominant-baseline="alphabetic" stroke-opacity="1" stroke-linejoin="bevel" stroke-miterlimit="10" stroke-width="3">D</text><text fill="rgb(77,77,255)" stroke="none" font-family="geogebra-sans-serif, sans-serif" font-size="16px" font-style="normal" font-weight="normal" text-decoration="normal" x="728" y="330" text-anchor="start" dominant-baseline="alphabetic" fill-opacity="1">D</text><path fill="rgb(77,77,255)" stroke="none" paint-order="stroke fill markers" d=" M 577 269.0000000000001 C 577 271.76142374915406 574.761423749154 274.0000000000001 572 274.0000000000001 C 569.238576250846 274.0000000000001 567 271.76142374915406 567 269.0000000000001 C 567 266.23857625084617 569.238576250846 264.0000000000001 572 264.0000000000001 C 574.761423749154 264.0000000000001 577 266.23857625084617 577 269.0000000000001 Z" fill-opacity="1"/><path fill="none" stroke="rgb(0,0,0)" paint-order="fill stroke markers" d=" M 577 269.0000000000001 C 577 271.76142374915406 574.761423749154 274.0000000000001 572 274.0000000000001 C 569.238576250846 274.0000000000001 567 271.76142374915406 567 269.0000000000001 C 567 266.23857625084617 569.238576250846 264.0000000000001 572 264.0000000000001 C 574.761423749154 264.0000000000001 577 266.23857625084617 577 269.0000000000001 Z" stroke-opacity="1" stroke-linecap="round" stroke-linejoin="round" stroke-miterlimit="10"/><text fill="rgb(77,77,255)" stroke="none" font-family="geogebra-sans-serif, sans-serif" font-size="16px" font-style="normal" font-weight="normal" text-decoration="normal" x="576" y="259" text-anchor="start" dominant-baseline="alphabetic" fill-opacity="1">E</text><text fill="none" stroke="rgb(255,255,255)" font-family="geogebra-sans-serif, sans-serif" font-size="16px" font-style="normal" font-weight="normal" text-decoration="normal" x="576" y="259" text-anchor="start" dominant-baseline="alphabetic" stroke-opacity="1" stroke-linejoin="bevel" stroke-miterlimit="10" stroke-width="3">E</text><text fill="rgb(77,77,255)" stroke="none" font-family="geogebra-sans-serif, sans-serif" font-size="16px" font-style="normal" font-weight="normal" text-decoration="normal" x="576" y="259" text-anchor="start" dominant-baseline="alphabetic" fill-opacity="1">E</text><path fill="rgb(77,77,255)" stroke="none" paint-order="stroke fill markers" d=" M 615.0000000000001 579.0000000000001 C 615.0000000000001 581.7614237491541 612.7614237491541 584.0000000000001 610.0000000000001 584.0000000000001 C 607.2385762508461 584.0000000000001 605.0000000000001 581.7614237491541 605.0000000000001 579.0000000000001 C 605.0000000000001 576.2385762508461 607.2385762508461 574.0000000000001 610.0000000000001 574.0000000000001 C 612.7614237491541 574.0000000000001 615.0000000000001 576.2385762508461 615.0000000000001 579.0000000000001 Z" fill-opacity="1"/><path fill="none" stroke="rgb(0,0,0)" paint-order="fill stroke markers" d=" M 615.0000000000001 579.0000000000001 C 615.0000000000001 581.7614237491541 612.7614237491541 584.0000000000001 610.0000000000001 584.0000000000001 C 607.2385762508461 584.0000000000001 605.0000000000001 581.7614237491541 605.0000000000001 579.0000000000001 C 605.0000000000001 576.2385762508461 607.2385762508461 574.0000000000001 610.0000000000001 574.0000000000001 C 612.7614237491541 574.0000000000001 615.0000000000001 576.2385762508461 615.0000000000001 579.0000000000001 Z" stroke-opacity="1" stroke-linecap="round" stroke-linejoin="round" stroke-miterlimit="10"/><text fill="rgb(77,77,255)" stroke="none" font-family="geogebra-sans-serif, sans-serif" font-size="16px" font-style="normal" font-weight="normal" text-decoration="normal" x="609" y="608" text-anchor="start" dominant-baseline="alphabetic" fill-opacity="1">F</text><text fill="none" stroke="rgb(255,255,255)" font-family="geogebra-sans-serif, sans-serif" font-size="16px" font-style="normal" font-weight="normal" text-decoration="normal" x="609" y="608" text-anchor="start" dominant-baseline="alphabetic" stroke-opacity="1" stroke-linejoin="bevel" stroke-miterlimit="10" stroke-width="3">F</text><text fill="rgb(77,77,255)" stroke="none" font-family="geogebra-sans-serif, sans-serif" font-size="16px" font-style="normal" font-weight="normal" text-decoration="normal" x="609" y="608" text-anchor="start" dominant-baseline="alphabetic" fill-opacity="1">F</text></g></g></svg>