<svg version="1.1" xmlns="http://www.w3.org/2000/svg" xmlns:xlink="http://www.w3.org/1999/xlink" width="658" height="330"><defs><clipPath id="CTsPOTWmXbIZ"><path fill="none" stroke="none" d=" M 0 0 L 658 0 L 658 330 L 0 330 L 0 0 Z"/></clipPath></defs><g transform="scale(1,1)" clip-path="url(#CTsPOTWmXbIZ)"><g transform="translate(-226.4818462396857,-263.14637824777225)"><rect fill="rgb(255,255,255)" stroke="none" x="0" y="0" width="1194" height="924" fill-opacity="1"/><path fill="none" stroke="rgb(0,0,0)" paint-order="fill stroke markers" d=" M 382.43406185365296 435.1463782477723 L 657.4340618536529 548.1463782477723" stroke-opacity="0.6980392156862745" stroke-linecap="round" stroke-linejoin="round" stroke-miterlimit="10" stroke-width="2.5"/><path fill="none" stroke="rgb(0,0,0)" paint-order="fill stroke markers" d=" M 657.4340618536529 548.1463782477723 L 727.4340618536528 329.1463782477724" stroke-opacity="0.6980392156862745" stroke-linecap="round" stroke-linejoin="round" stroke-miterlimit="10" stroke-width="2.5"/><path fill="none" stroke="rgb(255,0,0)" paint-order="fill stroke markers" d=" M 484.4340618536529 549.1463782477723 L 657.4340618536529 548.1463782477723" stroke-opacity="0.6980392156862745" stroke-linecap="round" stroke-linejoin="round" stroke-miterlimit="10" stroke-width="2.5"/><path fill="none" stroke="rgb(0,0,0)" paint-order="fill stroke markers" d=" M 435.43406185365285 352.1463782477724 L 657.4340618536529 548.1463782477723" stroke-opacity="0.6980392156862745" stroke-linecap="round" stroke-linejoin="round" stroke-miterlimit="10" stroke-width="2.5"/><path fill="none" stroke="rgb(0,0,0)" paint-order="fill stroke markers" d=" M 606.4340618536528 389.1463782477723 L 657.4340618536529 548.1463782477723" stroke-opacity="0.6980392156862745" stroke-linecap="round" stroke-linejoin="round" stroke-miterlimit="10" stroke-width="2.5"/><path fill="rgb(77,77,255)" stroke="none" paint-order="stroke fill markers" d=" M 489.4340618536529 549.1463782477723 C 489.4340618536529 551.9078019969263 487.19548560280685 554.1463782477723 484.4340618536529 554.1463782477723 C 481.67263810449896 554.1463782477723 479.4340618536529 551.9078019969263 479.4340618536529 549.1463782477723 C 479.4340618536529 546.3849544986183 481.67263810449896 544.1463782477723 484.4340618536529 544.1463782477723 C 487.19548560280685 544.1463782477723 489.4340618536529 546.3849544986183 489.4340618536529 549.1463782477723 Z" fill-opacity="1"/><path fill="none" stroke="rgb(0,0,0)" paint-order="fill stroke markers" d=" M 489.4340618536529 549.1463782477723 C 489.4340618536529 551.9078019969263 487.19548560280685 554.1463782477723 484.4340618536529 554.1463782477723 C 481.67263810449896 554.1463782477723 479.4340618536529 551.9078019969263 479.4340618536529 549.1463782477723 C 479.4340618536529 546.3849544986183 481.67263810449896 544.1463782477723 484.4340618536529 544.1463782477723 C 487.19548560280685 544.1463782477723 489.4340618536529 546.3849544986183 489.4340618536529 549.1463782477723 Z" stroke-opacity="1" stroke-linecap="round" stroke-linejoin="round" stroke-miterlimit="10"/><text fill="rgb(77,77,255)" stroke="none" font-family="geogebra-sans-serif, sans-serif" font-size="16px" font-style="normal" font-weight="normal" text-decoration="normal" x="488" y="539" text-anchor="start" dominant-baseline="alphabetic" fill-opacity="1">A</text><text fill="none" stroke="rgb(255,255,255)" font-family="geogebra-sans-serif, sans-serif" font-size="16px" font-style="normal" font-weight="normal" text-decoration="normal" x="488" y="539" text-anchor="start" dominant-baseline="alphabetic" stroke-opacity="1" stroke-linejoin="bevel" stroke-miterlimit="10" stroke-width="3">A</text><text fill="rgb(77,77,255)" stroke="none" font-family="geogebra-sans-serif, sans-serif" font-size="16px" font-style="normal" font-weight="normal" text-decoration="normal" x="488" y="539" text-anchor="start" dominant-baseline="alphabetic" fill-opacity="1">A</text><path fill="rgb(77,77,255)" stroke="none" paint-order="stroke fill markers" d=" M 732.4340618536528 329.1463782477724 C 732.4340618536528 331.90780199692637 730.1954856028068 334.1463782477724 727.4340618536528 334.1463782477724 C 724.6726381044988 334.1463782477724 722.4340618536528 331.90780199692637 722.4340618536528 329.1463782477724 C 722.4340618536528 326.38495449861847 724.6726381044988 324.1463782477724 727.4340618536528 324.1463782477724 C 730.1954856028068 324.1463782477724 732.4340618536528 326.38495449861847 732.4340618536528 329.1463782477724 Z" fill-opacity="1"/><path fill="none" stroke="rgb(0,0,0)" paint-order="fill stroke markers" d=" M 732.4340618536528 329.1463782477724 C 732.4340618536528 331.90780199692637 730.1954856028068 334.1463782477724 727.4340618536528 334.1463782477724 C 724.6726381044988 334.1463782477724 722.4340618536528 331.90780199692637 722.4340618536528 329.1463782477724 C 722.4340618536528 326.38495449861847 724.6726381044988 324.1463782477724 727.4340618536528 324.1463782477724 C 730.1954856028068 324.1463782477724 732.4340618536528 326.38495449861847 732.4340618536528 329.1463782477724 Z" stroke-opacity="1" stroke-linecap="round" stroke-linejoin="round" stroke-miterlimit="10"/><text fill="rgb(77,77,255)" stroke="none" font-family="geogebra-sans-serif, sans-serif" font-size="16px" font-style="normal" font-weight="normal" text-decoration="normal" x="731" y="319" text-anchor="start" dominant-baseline="alphabetic" fill-opacity="1">B</text><text fill="none" stroke="rgb(255,255,255)" font-family="geogebra-sans-serif, sans-serif" font-size="16px" font-style="normal" font-weight="normal" text-decoration="normal" x="731" y="319" text-anchor="start" dominant-baseline="alphabetic" stroke-opacity="1" stroke-linejoin="bevel" stroke-miterlimit="10" stroke-width="3">B</text><text fill="rgb(77,77,255)" stroke="none" font-family="geogebra-sans-serif, sans-serif" font-size="16px" font-style="normal" font-weight="normal" text-decoration="normal" x="731" y="319" text-anchor="start" dominant-baseline="alphabetic" fill-opacity="1">B</text><path fill="rgb(77,77,255)" stroke="none" paint-order="stroke fill markers" d=" M 387.43406185365296 435.1463782477723 C 387.43406185365296 437.90780199692625 385.1954856028069 440.1463782477723 382.43406185365296 440.1463782477723 C 379.672638104499 440.1463782477723 377.43406185365296 437.90780199692625 377.43406185365296 435.1463782477723 C 377.43406185365296 432.38495449861836 379.672638104499 430.1463782477723 382.43406185365296 430.1463782477723 C 385.1954856028069 430.1463782477723 387.43406185365296 432.38495449861836 387.43406185365296 435.1463782477723 Z" fill-opacity="1"/><path fill="none" stroke="rgb(0,0,0)" paint-order="fill stroke markers" d=" M 387.43406185365296 435.1463782477723 C 387.43406185365296 437.90780199692625 385.1954856028069 440.1463782477723 382.43406185365296 440.1463782477723 C 379.672638104499 440.1463782477723 377.43406185365296 437.90780199692625 377.43406185365296 435.1463782477723 C 377.43406185365296 432.38495449861836 379.672638104499 430.1463782477723 382.43406185365296 430.1463782477723 C 385.1954856028069 430.1463782477723 387.43406185365296 432.38495449861836 387.43406185365296 435.1463782477723 Z" stroke-opacity="1" stroke-linecap="round" stroke-linejoin="round" stroke-miterlimit="10"/><text fill="rgb(77,77,255)" stroke="none" font-family="geogebra-sans-serif, sans-serif" font-size="16px" font-style="normal" font-weight="normal" text-decoration="normal" x="386" y="425" text-anchor="start" dominant-baseline="alphabetic" fill-opacity="1">C</text><text fill="none" stroke="rgb(255,255,255)" font-family="geogebra-sans-serif, sans-serif" font-size="16px" font-style="normal" font-weight="normal" text-decoration="normal" x="386" y="425" text-anchor="start" dominant-baseline="alphabetic" stroke-opacity="1" stroke-linejoin="bevel" stroke-miterlimit="10" stroke-width="3">C</text><text fill="rgb(77,77,255)" stroke="none" font-family="geogebra-sans-serif, sans-serif" font-size="16px" font-style="normal" font-weight="normal" text-decoration="normal" x="386" y="425" text-anchor="start" dominant-baseline="alphabetic" fill-opacity="1">C</text><path fill="rgb(77,77,255)" stroke="none" paint-order="stroke fill markers" d=" M 611.4340618536528 389.1463782477723 C 611.4340618536528 391.90780199692625 609.1954856028068 394.1463782477723 606.4340618536528 394.1463782477723 C 603.6726381044988 394.1463782477723 601.4340618536528 391.90780199692625 601.4340618536528 389.1463782477723 C 601.4340618536528 386.38495449861836 603.6726381044988 384.1463782477723 606.4340618536528 384.1463782477723 C 609.1954856028068 384.1463782477723 611.4340618536528 386.38495449861836 611.4340618536528 389.1463782477723 Z" fill-opacity="1"/><path fill="none" stroke="rgb(0,0,0)" paint-order="fill stroke markers" d=" M 611.4340618536528 389.1463782477723 C 611.4340618536528 391.90780199692625 609.1954856028068 394.1463782477723 606.4340618536528 394.1463782477723 C 603.6726381044988 394.1463782477723 601.4340618536528 391.90780199692625 601.4340618536528 389.1463782477723 C 601.4340618536528 386.38495449861836 603.6726381044988 384.1463782477723 606.4340618536528 384.1463782477723 C 609.1954856028068 384.1463782477723 611.4340618536528 386.38495449861836 611.4340618536528 389.1463782477723 Z" stroke-opacity="1" stroke-linecap="round" stroke-linejoin="round" stroke-miterlimit="10"/><text fill="rgb(77,77,255)" stroke="none" font-family="geogebra-sans-serif, sans-serif" font-size="16px" font-style="normal" font-weight="normal" text-decoration="normal" x="610" y="379" text-anchor="start" dominant-baseline="alphabetic" fill-opacity="1">D</text><text fill="none" stroke="rgb(255,255,255)" font-family="geogebra-sans-serif, sans-serif" font-size="16px" font-style="normal" font-weight="normal" text-decoration="normal" x="610" y="379" text-anchor="start" dominant-baseline="alphabetic" stroke-opacity="1" stroke-linejoin="bevel" stroke-miterlimit="10" stroke-width="3">D</text><text fill="rgb(77,77,255)" stroke="none" font-family="geogebra-sans-serif, sans-serif" font-size="16px" font-style="normal" font-weight="normal" text-decoration="normal" x="610" y="379" text-anchor="start" dominant-baseline="alphabetic" fill-opacity="1">D</text><path fill="rgb(77,77,255)" stroke="none" paint-order="stroke fill markers" d=" M 440.43406185365285 352.1463782477724 C 440.43406185365285 354.90780199692637 438.1954856028068 357.1463782477724 435.43406185365285 357.1463782477724 C 432.6726381044989 357.1463782477724 430.43406185365285 354.90780199692637 430.43406185365285 352.1463782477724 C 430.43406185365285 349.38495449861847 432.6726381044989 347.1463782477724 435.43406185365285 347.1463782477724 C 438.1954856028068 347.1463782477724 440.43406185365285 349.38495449861847 440.43406185365285 352.1463782477724 Z" fill-opacity="1"/><path fill="none" stroke="rgb(0,0,0)" paint-order="fill stroke markers" d=" M 440.43406185365285 352.1463782477724 C 440.43406185365285 354.90780199692637 438.1954856028068 357.1463782477724 435.43406185365285 357.1463782477724 C 432.6726381044989 357.1463782477724 430.43406185365285 354.90780199692637 430.43406185365285 352.1463782477724 C 430.43406185365285 349.38495449861847 432.6726381044989 347.1463782477724 435.43406185365285 347.1463782477724 C 438.1954856028068 347.1463782477724 440.43406185365285 349.38495449861847 440.43406185365285 352.1463782477724 Z" stroke-opacity="1" stroke-linecap="round" stroke-linejoin="round" stroke-miterlimit="10"/><text fill="rgb(77,77,255)" stroke="none" font-family="geogebra-sans-serif, sans-serif" font-size="16px" font-style="normal" font-weight="normal" text-decoration="normal" x="439" y="342" text-anchor="start" dominant-baseline="alphabetic" fill-opacity="1">E</text><text fill="none" stroke="rgb(255,255,255)" font-family="geogebra-sans-serif, sans-serif" font-size="16px" font-style="normal" font-weight="normal" text-decoration="normal" x="439" y="342" text-anchor="start" dominant-baseline="alphabetic" stroke-opacity="1" stroke-linejoin="bevel" stroke-miterlimit="10" stroke-width="3">E</text><text fill="rgb(77,77,255)" stroke="none" font-family="geogebra-sans-serif, sans-serif" font-size="16px" font-style="normal" font-weight="normal" text-decoration="normal" x="439" y="342" text-anchor="start" dominant-baseline="alphabetic" fill-opacity="1">E</text><path fill="rgb(77,77,255)" stroke="none" paint-order="stroke fill markers" d=" M 662.4340618536529 548.1463782477723 C 662.4340618536529 550.9078019969263 660.1954856028069 553.1463782477723 657.4340618536529 553.1463782477723 C 654.6726381044989 553.1463782477723 652.4340618536529 550.9078019969263 652.4340618536529 548.1463782477723 C 652.4340618536529 545.3849544986183 654.6726381044989 543.1463782477723 657.4340618536529 543.1463782477723 C 660.1954856028069 543.1463782477723 662.4340618536529 545.3849544986183 662.4340618536529 548.1463782477723 Z" fill-opacity="1"/><path fill="none" stroke="rgb(0,0,0)" paint-order="fill stroke markers" d=" M 662.4340618536529 548.1463782477723 C 662.4340618536529 550.9078019969263 660.1954856028069 553.1463782477723 657.4340618536529 553.1463782477723 C 654.6726381044989 553.1463782477723 652.4340618536529 550.9078019969263 652.4340618536529 548.1463782477723 C 652.4340618536529 545.3849544986183 654.6726381044989 543.1463782477723 657.4340618536529 543.1463782477723 C 660.1954856028069 543.1463782477723 662.4340618536529 545.3849544986183 662.4340618536529 548.1463782477723 Z" stroke-opacity="1" stroke-linecap="round" stroke-linejoin="round" stroke-miterlimit="10"/><text fill="rgb(77,77,255)" stroke="none" font-family="geogebra-sans-serif, sans-serif" font-size="16px" font-style="normal" font-weight="normal" text-decoration="normal" x="661" y="538" text-anchor="start" dominant-baseline="alphabetic" fill-opacity="1">F</text><text fill="none" stroke="rgb(255,255,255)" font-family="geogebra-sans-serif, sans-serif" font-size="16px" font-style="normal" font-weight="normal" text-decoration="normal" x="661" y="538" text-anchor="start" dominant-baseline="alphabetic" stroke-opacity="1" stroke-linejoin="bevel" stroke-miterlimit="10" stroke-width="3">F</text><text fill="rgb(77,77,255)" stroke="none" font-family="geogebra-sans-serif, sans-serif" font-size="16px" font-style="normal" font-weight="normal" text-decoration="normal" x="661" y="538" text-anchor="start" dominant-baseline="alphabetic" fill-opacity="1">F</text></g></g></svg>